<svg xmlns="http://www.w3.org/2000/svg" width="34" height="34" viewBox="0 0 34 34">
  <g id="Group_37433" data-name="Group 37433" transform="translate(-780 -922)">
    <circle id="Ellipse_128" data-name="Ellipse 128" cx="17" cy="17" r="17"
      transform="translate(780 922)" fill="#017efb" />
    <g id="vuesax_outline_bank" data-name="vuesax/outline/bank" transform="translate(361 743)">
      <g id="bank" transform="translate(428 188)">
        <path id="Vector"
          d="M12.9,6.8H1.143A1.149,1.149,0,0,1,0,5.652V3.483A1.188,1.188,0,0,1,.719,2.425L6.6.073a1.264,1.264,0,0,1,.849,0l5.879,2.352a1.2,1.2,0,0,1,.719,1.058V5.652A1.149,1.149,0,0,1,12.9,6.8ZM7.023.975a.182.182,0,0,0-.065.006L1.084,3.333a.246.246,0,0,0-.1.15V5.652a.162.162,0,0,0,.163.163H12.9a.162.162,0,0,0,.163-.163V3.483a.223.223,0,0,0-.1-.15L7.081.981A.145.145,0,0,0,7.023.975Z"
          transform="translate(0.817 0.88)" fill="#fff" />
        <path id="Vector-2" data-name="Vector"
          d="M13.555,3.593H.49A.494.494,0,0,1,0,3.1V1.143A1.149,1.149,0,0,1,1.143,0H12.9a1.149,1.149,0,0,1,1.143,1.143V3.1A.494.494,0,0,1,13.555,3.593ZM.98,2.613H13.065V1.143A.162.162,0,0,0,12.9.98H1.143a.162.162,0,0,0-.163.163Z"
          transform="translate(0.817 11.269)" fill="#fff" />
        <path id="Vector-3" data-name="Vector"
          d="M.49,5.553A.494.494,0,0,1,0,5.063V.49A.494.494,0,0,1,.49,0,.494.494,0,0,1,.98.49V5.063A.494.494,0,0,1,.49,5.553Z"
          transform="translate(2.123 6.696)" fill="#fff" />
        <path id="Vector-4" data-name="Vector"
          d="M.49,5.553A.494.494,0,0,1,0,5.063V.49A.494.494,0,0,1,.49,0,.494.494,0,0,1,.98.49V5.063A.494.494,0,0,1,.49,5.553Z"
          transform="translate(4.736 6.696)" fill="#fff" />
        <path id="Vector-5" data-name="Vector"
          d="M.49,5.553A.494.494,0,0,1,0,5.063V.49A.494.494,0,0,1,.49,0,.494.494,0,0,1,.98.49V5.063A.494.494,0,0,1,.49,5.553Z"
          transform="translate(7.349 6.696)" fill="#fff" />
        <path id="Vector-6" data-name="Vector"
          d="M.49,5.553A.494.494,0,0,1,0,5.063V.49A.494.494,0,0,1,.49,0,.494.494,0,0,1,.98.49V5.063A.494.494,0,0,1,.49,5.553Z"
          transform="translate(9.962 6.696)" fill="#fff" />
        <path id="Vector-7" data-name="Vector"
          d="M.49,5.553A.494.494,0,0,1,0,5.063V.49A.494.494,0,0,1,.49,0,.494.494,0,0,1,.98.49V5.063A.494.494,0,0,1,.49,5.553Z"
          transform="translate(12.575 6.696)" fill="#fff" />
        <path id="Vector-8" data-name="Vector"
          d="M14.862.98H.49A.494.494,0,0,1,0,.49.494.494,0,0,1,.49,0H14.862a.494.494,0,0,1,.49.49A.494.494,0,0,1,14.862.98Z"
          transform="translate(0.163 13.882)" fill="#fff" />
        <path id="Vector-9" data-name="Vector"
          d="M1.47,2.94A1.47,1.47,0,1,1,2.94,1.47,1.472,1.472,0,0,1,1.47,2.94Zm0-1.96a.49.49,0,1,0,.49.49A.494.494,0,0,0,1.47.98Z"
          transform="translate(6.369 3.103)" fill="#fff" />
        <path id="Vector-10" data-name="Vector" d="M0,0H15.678V15.678H0Z" fill="none" opacity="0" />
      </g>
    </g>
  </g>
</svg>