<svg xmlns="http://www.w3.org/2000/svg" width="34" height="34" viewBox="0 0 34 34">
  <g id="Group_37368" data-name="Group 37368" transform="translate(-642.831 -935)">
    <circle id="Ellipse_128" data-name="Ellipse 128" cx="17" cy="17" r="17"
      transform="translate(642.831 935)" fill="#017efb" />
    <g id="vuesax_outline_activity" data-name="vuesax/outline/activity"
      transform="translate(286.831 755)">
      <g id="activity" transform="translate(364 188)">
        <path id="Vector"
          d="M9.913,15.5H5.587C1.673,15.5,0,13.827,0,9.913V5.587C0,1.673,1.673,0,5.587,0H9.913C13.827,0,15.5,1.673,15.5,5.587V9.913C15.5,13.827,13.827,15.5,9.913,15.5ZM5.587,1.081c-3.323,0-4.506,1.182-4.506,4.506V9.913c0,3.323,1.182,4.506,4.506,4.506H9.913c3.323,0,4.506-1.182,4.506-4.506V5.587c0-3.323-1.182-4.506-4.506-4.506Z"
          transform="translate(1.25 1.25)" fill="#fff" />
        <path id="Vector-2" data-name="Vector"
          d="M.754,6.492a.736.736,0,0,1-.46-.16.749.749,0,0,1-.14-1.05l2.38-3.09A1.752,1.752,0,0,1,5,1.882l1.83,1.44a.214.214,0,0,0,.19.05.222.222,0,0,0,.17-.1L9.5.292a.739.739,0,0,1,1.05-.13.738.738,0,0,1,.13,1.05l-2.31,2.98a1.707,1.707,0,0,1-1.17.66,1.735,1.735,0,0,1-1.3-.36l-1.83-1.44A.219.219,0,0,0,3.884,3a.222.222,0,0,0-.17.1l-2.38,3.09A.678.678,0,0,1,.754,6.492Z"
          transform="translate(3.577 5.75)" fill="#fff" />
        <path id="Vector-3" data-name="Vector" d="M0,0H18V18H0Z" fill="none" opacity="0" />
      </g>
    </g>
  </g>
</svg>