<svg xmlns="http://www.w3.org/2000/svg" width="34" height="34" viewBox="0 0 34 34">
  <g id="Group_37963" data-name="Group 37963" transform="translate(-386 -314)">
    <g id="Group_485" data-name="Group 485" transform="translate(-759.5 -85.99)">
      <circle id="Ellipse_80" data-name="Ellipse 80" cx="17" cy="17" r="17"
        transform="translate(1145.5 399.99)" fill="#017efb" />
    </g>
    <g id="vuesax_outline_graph" data-name="vuesax/outline/graph" transform="translate(95 135)">
      <g id="graph" transform="translate(300 188)">
        <path id="Vector"
          d="M4.594,7.074H2.437C.819,7.074,0,6.158,0,4.345V2.48A2.583,2.583,0,0,1,.767.349,2.937,2.937,0,0,1,3.4.245,5.137,5.137,0,0,1,6.829,3.669a2.923,2.923,0,0,1-.1,2.631A2.569,2.569,0,0,1,4.594,7.074ZM1.969.973a1.008,1.008,0,0,0-.611.156C1.1,1.317.981,1.759.981,2.48V4.351c0,1.455.559,1.754,1.462,1.754H4.6c.715,0,1.157-.123,1.351-.377.227-.3.208-.9-.045-1.774A4.206,4.206,0,0,0,3.145,1.194,4.126,4.126,0,0,0,1.969.973Z"
          transform="translate(7.31 1.21)" fill="#fff" />
        <path id="Vector-2" data-name="Vector"
          d="M6.381,12.666A6.393,6.393,0,0,1,5.107.009a.494.494,0,0,1,.578.377.494.494,0,0,1-.377.578,5.421,5.421,0,1,0,6.406,6.38.487.487,0,0,1,.955.188A6.4,6.4,0,0,1,6.381,12.666Z"
          transform="translate(0.812 2.115)" fill="#fff" />
        <path id="Vector-3" data-name="Vector" d="M0,0H15.594V15.594H0Z" fill="none" opacity="0" />
      </g>
    </g>
  </g>
</svg>