<svg xmlns="http://www.w3.org/2000/svg" xmlns:xlink="http://www.w3.org/1999/xlink" width="45" height="45" viewBox="0 0 45 45">
  <defs>
    <clipPath id="clip-path">
      <rect id="Rectangle_17390" data-name="Rectangle 17390" width="45" height="45" rx="12" transform="translate(384 1)" fill="#fff"/>
    </clipPath>
  </defs>
  <g id="Group_37923" data-name="Group 37923" transform="translate(-384 -1)" clip-path="url(#clip-path)">
    <rect id="Rectangle_17389" data-name="Rectangle 17389" width="45" height="45" transform="translate(384 1)" fill="#668aff"/>
    <path id="Path_27618" data-name="Path 27618" d="M410.667,27.15a3.75,3.75,0,1,1,3.75,3.75A3.75,3.75,0,0,1,410.667,27.15Z" transform="translate(-7.917 -6.65)" fill="#fff"/>
    <path id="Path_27619" data-name="Path 27619" d="M411.25,17A11.25,11.25,0,1,0,422.5,28.25,11.25,11.25,0,0,0,411.25,17ZM401.5,28.25A9.75,9.75,0,1,1,417.981,35.3a5.25,5.25,0,0,0-5.231-4.8h-3a5.25,5.25,0,0,0-5.231,4.8A9.72,9.72,0,0,1,401.5,28.25Z" transform="translate(-4.75 -4.75)" fill="#fff" fill-rule="evenodd"/>
  </g>
</svg>
