<svg xmlns="http://www.w3.org/2000/svg" width="16.5" height="13.549" viewBox="0 0 16.5 13.549">
  <g id="Iconly_Light-Outline_Arrow---Right" data-name="Iconly/Light-Outline/Arrow---Right"
    transform="translate(-4 -4.951)">
    <g id="Arrow---Right" transform="translate(4 18.5) rotate(-90)">
      <path id="Combined-Shape"
        d="M6.774,0a.75.75,0,0,1,.743.648l.007.1V13.934l4.744-4.763a.75.75,0,0,1,1.135.974l-.072.084-6.024,6.05a.751.751,0,0,1-.124.1l-.041.024-.037.02-.056.024-.043.016-.056.016-.04.008-.06.008-.046,0H6.745l-.044,0,.073,0a.753.753,0,0,1-.139-.013L6.6,16.48c-.023-.005-.044-.011-.066-.019L6.5,16.45c-.023-.009-.044-.018-.065-.029l-.03-.016-.048-.029-.033-.024-.009-.007a.75.75,0,0,1-.075-.066h0L.218,10.229A.75.75,0,0,1,1.2,9.1l.084.073,4.743,4.761V.75A.75.75,0,0,1,6.774,0Z"
        fill="#5671ff" />
    </g>
  </g>
</svg>