<svg id="Group_37390" data-name="Group 37390" xmlns="http://www.w3.org/2000/svg" width="33.427"
  height="33.427" viewBox="0 0 33.427 33.427">
  <path id="Path_27591" data-name="Path 27591"
    d="M173.544,217.771a16.713,16.713,0,1,0-16.714-16.713A16.713,16.713,0,0,0,173.544,217.771Z"
    transform="translate(-156.83 -184.344)" fill="#017efb" fill-rule="evenodd" />
  <path id="Path_27592" data-name="Path 27592"
    d="M179.5,201.448h-4.179v-4.179a.7.7,0,1,0-1.392,0v4.179h-4.179a.7.7,0,0,0,0,1.392h4.179v4.179a.7.7,0,0,0,1.392,0V202.84H179.5a.7.7,0,0,0,0-1.392Z"
    transform="translate(-157.916 -185.43)" fill="#fff" fill-rule="evenodd" />
</svg>