<svg xmlns="http://www.w3.org/2000/svg" width="15.182" height="15.182" viewBox="0 0 15.182 15.182">
  <g id="tune" transform="translate(-3.25 -3.25)">
    <path id="Union"
      d="M2.668,3.9H.651a.651.651,0,1,1,0-1.3H2.668a3.254,3.254,0,0,1,6.376,0h5.487a.651.651,0,0,1,0,1.3H9.044a3.254,3.254,0,0,1-6.376,0ZM3.9,3.253A1.952,1.952,0,1,1,5.856,5.205,1.952,1.952,0,0,1,3.9,3.253Z"
      transform="translate(3.25 11.926)" fill="#fff" />
    <path id="Union-2" data-name="Union"
      d="M6.138,3.9H.651a.651.651,0,1,1,0-1.3H6.138a3.254,3.254,0,0,1,6.376,0h2.017a.651.651,0,0,1,0,1.3H12.514a3.254,3.254,0,0,1-6.376,0Zm1.236-.651A1.952,1.952,0,1,1,9.326,5.205,1.952,1.952,0,0,1,7.374,3.253Z"
      transform="translate(3.25 3.25)" fill="#fff" />
  </g>
</svg>