<svg xmlns="http://www.w3.org/2000/svg" width="18" height="19" viewBox="0 0 18 19">
  <g id="Menu" transform="translate(-3 -2)">
    <path id="Ellipse_201" data-name="Ellipse 201"
      d="M12.632.532A.918.918,0,0,1,13.949.144a9,9,0,1,1-9.9,0A.918.918,0,0,1,5.368.532a1.121,1.121,0,0,1-.4,1.406,7,7,0,1,0,8.067,0A1.121,1.121,0,0,1,12.632.532Z"
      transform="translate(3 4.339)" fill="#8a8e97" />
    <path id="Vector_606_Stroke_" data-name="Vector 606 (Stroke)"
      d="M1,0A1,1,0,0,1,2,1V6A1,1,0,0,1,0,6V1A1,1,0,0,1,1,0Z" transform="translate(11 2)"
      fill="#d0d1d4" />
  </g>
</svg>