<svg xmlns="http://www.w3.org/2000/svg" width="25.645" height="25.645" viewBox="0 0 25.645 25.645">
  <g id="Group_37294" data-name="Group 37294" transform="translate(-1694 -32)">
    <g id="vuesax_bulk_notification" data-name="vuesax/bulk/notification"
      transform="translate(1523 -156)">
      <g id="notification" transform="translate(171 188)">
        <path id="Vector"
          d="M16.059,12.384l-1.069-1.774a3.97,3.97,0,0,1-.427-1.581v-2.7a6.326,6.326,0,0,0-12.652,0v2.7A3.875,3.875,0,0,1,1.485,10.6L.405,12.384a2.5,2.5,0,0,0,1.4,3.772A19.984,19.984,0,0,0,8.238,17.2a20.27,20.27,0,0,0,6.433-1.036,2.577,2.577,0,0,0,1.389-3.783Z"
          transform="translate(4.606 3.099)" fill="#d0d1d4" />
        <path id="Vector-2" data-name="Vector"
          d="M4.755,1.41A6.517,6.517,0,0,0,2.372.962,6.288,6.288,0,0,0,0,1.41,2.675,2.675,0,0,1,2.372,0,2.691,2.691,0,0,1,4.755,1.41Z"
          transform="translate(10.472 2.137)" fill="#8a8e97" />
        <path id="Vector-3" data-name="Vector"
          d="M6.037.011A3.221,3.221,0,0,1,3.013,2.137,3.168,3.168,0,0,1,.748,1.186,2.95,2.95,0,0,1,0,0C.139.021.278.032.427.053c.246.032.5.064.759.085C1.8.192,2.415.224,3.035.224S4.253.192,4.851.139C5.076.118,5.3.107,5.514.075Z"
          transform="translate(9.809 21.371)" fill="#8a8e97" />
        <path id="Vector-4" data-name="Vector" d="M0,0H25.645V25.645H0Z" fill="none" opacity="0" />
      </g>
    </g>
    <path id="Vector-5" data-name="Vector" d="M6,3A3,3,0,1,1,3,0,3,3,0,0,1,6,3Z"
      transform="translate(1710 36)" fill="#ff5656" />
  </g>
</svg>