<svg xmlns="http://www.w3.org/2000/svg" width="24.34" height="25.621" viewBox="0 0 24.34 25.621">
  <g id="Iconly_Bulk_Setting" data-name="Iconly/Bulk/Setting" transform="translate(-2.5 -2)">
    <g id="Setting" transform="translate(2.5 2)">
      <path id="Path"
        d="M23.994,15.846a2.948,2.948,0,0,0-1.06-1.012,1.982,1.982,0,0,1-.812-.82,2.334,2.334,0,0,1,.838-3.2,2.6,2.6,0,0,0,.969-3.625l-.877-1.512A2.706,2.706,0,0,0,19.373,4.7a2.527,2.527,0,0,1-3.3-.884,1.981,1.981,0,0,1-.3-1.127,2.277,2.277,0,0,0-.353-1.358A2.757,2.757,0,0,0,13.089,0H11.243A2.811,2.811,0,0,0,8.925,1.332,2.286,2.286,0,0,0,8.559,2.69a1.98,1.98,0,0,1-.3,1.127A2.515,2.515,0,0,1,4.972,4.7a2.722,2.722,0,0,0-3.692.974L.4,7.187a2.618,2.618,0,0,0,.969,3.625,2.349,2.349,0,0,1,.851,3.2,2.094,2.094,0,0,1-.825.82A2.713,2.713,0,0,0,.35,15.846a2.555,2.555,0,0,0,.026,2.626l.9,1.537a2.733,2.733,0,0,0,2.33,1.332A2.768,2.768,0,0,0,5,20.958a2.032,2.032,0,0,1,1.152-.295,2.424,2.424,0,0,1,2.409,2.331,2.652,2.652,0,0,0,2.723,2.626h1.78a2.649,2.649,0,0,0,2.71-2.626,2.445,2.445,0,0,1,2.422-2.331,2.088,2.088,0,0,1,1.152.295,2.687,2.687,0,0,0,3.7-.948l.916-1.537a2.585,2.585,0,0,0,.026-2.626"
        transform="translate(0)" fill="#d0d1d4" />
      <path id="Path-2" data-name="Path"
        d="M10.328,14.418a3.62,3.62,0,1,1,0-7.238,3.619,3.619,0,1,1,0,7.238"
        transform="translate(1.858 2.018)" fill="#8a8e97" />
    </g>
  </g>
</svg>