<svg xmlns="http://www.w3.org/2000/svg" width="20" height="20" viewBox="0 0 20 20">
  <g id="Menu" transform="translate(-2 -2)">
    <rect id="Rectangle_Copy" data-name="Rectangle Copy" width="20" height="17" rx="3"
      transform="translate(2 5)" fill="#8a8e97" />
    <rect id="Rectangle_265" data-name="Rectangle 265" width="4" height="2" rx="1"
      transform="translate(10 12)" fill="#d0d1d4" />
    <path id="Subtract"
      d="M6.246,1.886,5.8,3H3A3,3,0,0,0,0,6V8a3,3,0,0,0,3,3H6A3,3,0,0,1,9,8h2a3,3,0,0,1,3,3h3a3,3,0,0,0,3-3V6a3,3,0,0,0-3-3H14.2l-.446-1.114A3,3,0,0,0,10.969,0H9.031A3,3,0,0,0,6.246,1.886ZM10.969,2H9.031a1,1,0,0,0-.928.629L7.954,3h4.092L11.9,2.629A1,1,0,0,0,10.969,2Z"
      transform="translate(2 2)" fill="#d0d1d4" />
  </g>
</svg>