<svg xmlns="http://www.w3.org/2000/svg" width="18" height="20" viewBox="0 0 18 20">
  <g id="Iconly_Bulk_Calendar" data-name="Iconly/Bulk/Calendar" transform="translate(-3 -2)">
    <g id="Calendar" transform="translate(3 2)">
      <path id="Fill-1"
        d="M13.05,16.09a.847.847,0,0,1-.82-.85.831.831,0,0,1,.81-.849h.01a.85.85,0,0,1,0,1.7ZM9.02,12.41a.822.822,0,0,1-.85-.8.856.856,0,0,1,.81-.861.831.831,0,0,1,.04,1.66Zm0,3.63a.822.822,0,0,1-.85-.8.855.855,0,0,1,.81-.86.831.831,0,0,1,.04,1.66Zm-4.06-3.63a.822.822,0,0,1-.85-.8.856.856,0,0,1,.81-.861.831.831,0,0,1,.04,1.66Zm-.01,3.63a.822.822,0,0,1-.85-.8.855.855,0,0,1,.81-.86.831.831,0,0,1,.04,1.66ZM12.24,11.6a.815.815,0,1,1,1.63-.04.815.815,0,1,1-1.63.05ZM0,7.257V14.87A4.776,4.776,0,0,0,5.127,20h7.735C16.024,20,18,18.07,18,14.931V7.257Z"
        fill="#d0d1d4" />
      <path id="Fill-4"
        d="M0,7.257A15.855,15.855,0,0,1,.158,5.13,4.591,4.591,0,0,1,4.545,1.49h8.911a4.639,4.639,0,0,1,4.386,3.64A15.882,15.882,0,0,1,18,7.257Z"
        fill="#8a8e97" />
      <path id="Fill-6"
        d="M5.3,4.59a.747.747,0,0,0,.761-.77V.771a.761.761,0,1,0-1.521,0V3.82a.747.747,0,0,0,.761.77"
        fill="#d0d1d4" />
      <path id="Fill-9"
        d="M12.695,4.59a.753.753,0,0,0,.761-.77V.771a.761.761,0,1,0-1.521,0V3.82a.747.747,0,0,0,.761.77"
        fill="#d0d1d4" />
    </g>
  </g>
</svg>