<svg xmlns="http://www.w3.org/2000/svg" width="22" height="22" viewBox="0 0 22 22">
  <g id="vuesax_bulk_edit" data-name="vuesax/bulk/edit" transform="translate(-620 -252)">
    <g id="edit" transform="translate(620 252)">
      <path id="Vector"
        d="M12.357,0H5.06C1.9,0,0,1.888,0,5.06v7.287c0,3.181,1.9,5.069,5.06,5.069h7.288c3.172,0,5.06-1.888,5.06-5.06V5.06C17.417,1.888,15.519,0,12.357,0Z"
        transform="translate(1.833 2.75)" fill="#d0d1d4" />
      <g id="Group_37485" data-name="Group 37485" transform="translate(4.871)">
        <path id="Vector-2" data-name="Vector"
          d="M4.012.828A2.021,2.021,0,0,0,.75.828l-.685.679a.221.221,0,0,0-.055.224,4.546,4.546,0,0,0,3.1,3.1.249.249,0,0,0,.067.006.234.234,0,0,0,.164-.067l.673-.679a2.33,2.33,0,0,0,.825-1.619A2.378,2.378,0,0,0,4.012.828Z"
          transform="translate(10.808 1.48)" fill="#8a8e97" />
        <path id="Vector-3" data-name="Vector"
          d="M6.775,3.08a4.846,4.846,0,0,1-.467-.249c-.121-.073-.243-.152-.358-.236a3.165,3.165,0,0,1-.315-.243.624.624,0,0,1-.1-.085,4.367,4.367,0,0,1-.576-.582.465.465,0,0,1-.079-.1,2.264,2.264,0,0,1-.23-.309A2.9,2.9,0,0,1,4.434.94,4.78,4.78,0,0,1,4.192.479C4.113.309,4.052.152,4,0L.736,3.262a1.861,1.861,0,0,0-.461.909L.014,5.978A1.135,1.135,0,0,0,.3,6.954a1.075,1.075,0,0,0,.776.3c.067,0,.133-.006.2-.012l1.8-.255a1.811,1.811,0,0,0,.909-.461L7.247,3.268C7.1,3.219,6.944,3.153,6.775,3.08Z"
          transform="translate(6.129 3.739)" fill="#8a8e97" />
      </g>
      <path id="Vector-4" data-name="Vector" d="M0,0H22V22H0Z" fill="none" opacity="0" />
    </g>
  </g>
</svg>