<svg xmlns="http://www.w3.org/2000/svg" width="22" height="22" viewBox="0 0 22 22">
  <g id="vuesax_bulk_card-send" data-name="vuesax/bulk/card-send" transform="translate(-620 -508)">
    <g id="card-send" transform="translate(620 508)">
      <path id="Vector"
        d="M4.556,0H1.861A1.711,1.711,0,0,0,0,1.861V4.556A1.711,1.711,0,0,0,1.861,6.417H4.556A1.711,1.711,0,0,0,6.417,4.556V1.861A1.711,1.711,0,0,0,4.556,0Zm.2,3.034a.575.575,0,0,1-.807,0l-.165-.165V4.923a.577.577,0,1,1-1.155,0V2.869l-.165.165a.57.57,0,0,1-.807-.807L2.8,1.082a.564.564,0,0,1,.174-.11C3,.962,3.016.962,3.034.953A.38.38,0,0,1,3.181.926h.055a.437.437,0,0,1,.183.037h.018a.52.52,0,0,1,.165.11c.009.009.009.009.018.009L4.767,2.228A.567.567,0,0,1,4.758,3.034Z"
        transform="translate(14.667 0.917)" fill="#8a8e97" />
      <path id="Vector-2" data-name="Vector"
        d="M18.333,4.006V5.133H0V3.8A3.8,3.8,0,0,1,3.8,0h9.029V2.356a1.711,1.711,0,0,0,1.861,1.861h2.695A1.915,1.915,0,0,0,18.333,4.006Z"
        transform="translate(1.833 3.117)" fill="#d0d1d4" />
      <path id="Vector-3" data-name="Vector"
        d="M0,0V6.838a3.8,3.8,0,0,0,3.8,3.8H14.529a3.8,3.8,0,0,0,3.8-3.8V0ZM5.5,7.563H3.667a.688.688,0,0,1,0-1.375H5.5a.688.688,0,0,1,0,1.375Zm5.958,0H7.792a.688.688,0,0,1,0-1.375h3.667a.688.688,0,1,1,0,1.375Z"
        transform="translate(1.833 8.25)" fill="#8a8e97" />
      <path id="Vector-4" data-name="Vector" d="M0,0H22V22H0Z" fill="none" opacity="0" />
    </g>
  </g>
</svg>