<svg xmlns="http://www.w3.org/2000/svg" width="17" height="20" viewBox="0 0 17 20">
  <g id="Iconly_Bulk_Paper" data-name="Iconly/Bulk/Paper" transform="translate(-3.5 -2)">
    <g id="Paper" transform="translate(3.5 2)">
      <path id="Fill-3"
        d="M15.309,7.021c-.451,0-1.05-.01-1.794-.01a3.336,3.336,0,0,1-3.309-3.336V.459A.456.456,0,0,0,9.753,0H4.464A4.489,4.489,0,0,0,0,4.509V15.284A4.692,4.692,0,0,0,4.67,20h7.877A4.476,4.476,0,0,0,17,15.5V7.471a.453.453,0,0,0-.452-.458c-.423,0-.93.008-1.239.008"
        fill="#8a8e97" />
      <path id="Fill-1"
        d="M12.584.567A.477.477,0,0,0,11.763.9V3.538A2.026,2.026,0,0,0,13.78,5.554c.7.008,1.665.01,2.487.008a.477.477,0,0,0,.343-.808c-1.055-1.1-2.944-3.063-4.026-4.187"
        fill="#d0d1d4" />
      <path id="Combined-Shape"
        d="M10.918,12.893a.744.744,0,1,1,0,1.489H5.474a.744.744,0,0,1,0-1.489ZM8.859,7.9a.745.745,0,1,1,0,1.489H5.474a.745.745,0,0,1,0-1.489Z"
        fill="#d0d1d4" />
    </g>
  </g>
</svg>