<svg xmlns="http://www.w3.org/2000/svg" width="16" height="20" viewBox="0 0 16 20">
  <g id="Menu" transform="translate(-4 -2)">
    <path id="Path"
      d="M16-7c0,4-3.747,7-8,7A7.743,7.743,0,0,1,0-8c0-3.06,2-8,2-8s1,2.5,1.5,4A3.463,3.463,0,0,0,5-10a7.128,7.128,0,0,1,0-4c1.5-5,5-6,5-6a8.123,8.123,0,0,0,2,6C13-13,16-11,16-7Z"
      transform="translate(4 22)" fill="#d0d1d4" />
    <path id="Subtract"
      d="M4.908,5.877c3.11,0,6.638-2.439,5.908-5.877a4.435,4.435,0,0,1,1.092,2.877c0,2.761-2.686,5-6,5C2.953,7.877.5,6.1,0,3.753A6.415,6.415,0,0,0,4.908,5.877Z"
      transform="translate(6.092 12.123)" fill="#8a8e97" />
  </g>
</svg>