<svg xmlns="http://www.w3.org/2000/svg" width="20" height="20.109" viewBox="0 0 20 20.109">
  <g id="messages" transform="translate(-2 -1.734)">
    <path id="Subtract"
      d="M10,3.766a1.5,1.5,0,0,0,.832-.252l2.891-1.927A.5.5,0,0,1,14.5,2v9.263a1.5,1.5,0,0,1-1.5,1.5H12v1.5h1a3,3,0,0,0,3-3V2A2,2,0,0,0,12.891.339L10,2.266H3a3,3,0,0,0-3,3v1H1.5v-1A1.5,1.5,0,0,1,3,3.766Z"
      transform="translate(6 1.734)" fill="#d0d1d4" />
    <path id="Rectangle_192_Stroke_" data-name="Rectangle 192 (Stroke)"
      d="M4.063,10.829A1.5,1.5,0,0,1,5,10.5h8A1.5,1.5,0,0,0,14.5,9V3A1.5,1.5,0,0,0,13,1.5H3A1.5,1.5,0,0,0,1.5,3v8.839a.5.5,0,0,0,.812.39ZM5,12h8a3,3,0,0,0,3-3V3a3,3,0,0,0-3-3H3A3,3,0,0,0,0,3v8.839A2,2,0,0,0,3.249,13.4Z"
      transform="translate(2 8)" fill="#8a8e97" />
    <path id="Vector_409_Stroke_" data-name="Vector 409 (Stroke)"
      d="M0,.75A.75.75,0,0,1,.75,0h6a.75.75,0,0,1,0,1.5h-6A.75.75,0,0,1,0,.75Z"
      transform="translate(6.25 13.25)" fill="#d0d1d4" />
  </g>
</svg>