<svg xmlns="http://www.w3.org/2000/svg" width="24" height="24" viewBox="0 0 24 24">
  <g id="vuesax_bulk_home-hashtag" data-name="vuesax/bulk/home-hashtag"
    transform="translate(-556 -188)">
    <g id="home-hashtag">
      <g id="home-hashtag-2" data-name="home-hashtag">
        <path id="Vector"
          d="M18.03,4.818,12.28.788A4.836,4.836,0,0,0,6.8.918L1.79,4.828A5.115,5.115,0,0,0,0,8.468v6.9A4.628,4.628,0,0,0,4.61,20H15.38a4.62,4.62,0,0,0,4.61-4.62V8.6A5.06,5.06,0,0,0,18.03,4.818Z"
          transform="translate(558 190.002)" fill="#d0d1d4" />
        <path id="Vector-2" data-name="Vector"
          d="M6.29,0H3.49A3.493,3.493,0,0,0,0,3.49V6.28A3.5,3.5,0,0,0,3.49,9.77H6.28A3.493,3.493,0,0,0,9.77,6.28V3.49A3.491,3.491,0,0,0,6.29,0ZM8.38,3.49v.7H5.59V1.4h.7A2.1,2.1,0,0,1,8.38,3.49ZM3.49,1.4h.7V4.19H1.4v-.7A2.1,2.1,0,0,1,3.49,1.4ZM1.4,6.28v-.7H4.19V8.37h-.7A2.1,2.1,0,0,1,1.4,6.28ZM6.29,8.37h-.7V5.58H8.38v.7A2.1,2.1,0,0,1,6.29,8.37Z"
          transform="translate(563.11 196.51)" fill="#8a8e97" />
      </g>
      <path id="Vector-3" data-name="Vector" d="M0,0H24V24H0Z" transform="translate(556 188)"
        fill="none" opacity="0" />
    </g>
  </g>
</svg>