<svg xmlns="http://www.w3.org/2000/svg" width="22" height="22" viewBox="0 0 22 22">
  <g id="vuesax_bulk_brush" data-name="vuesax/bulk/brush" transform="translate(-172 -188)">
    <g id="brush" transform="translate(172 188)">
      <path id="Vector"
        d="M10.688.825A3.223,3.223,0,0,0,8.314,0H3.2A2.886,2.886,0,0,0,0,3.2,3.223,3.223,0,0,0,.825,5.573,3.223,3.223,0,0,0,3.2,6.4H8.314a2.886,2.886,0,0,0,3.2-3.2A3.223,3.223,0,0,0,10.688.825Z"
        transform="translate(3.538 1.833)" fill="#8a8e97" />
      <path id="Vector-2" data-name="Vector"
        d="M2.768,0H1.916A1.717,1.717,0,0,0,0,1.916V4.473A1.717,1.717,0,0,0,1.916,6.389h.853A1.717,1.717,0,0,0,4.684,4.473V1.916A1.715,1.715,0,0,0,2.768,0Z"
        transform="translate(6.948 13.768)" fill="#d0d1d4" />
      <path id="Vector-3" data-name="Vector"
        d="M6.6,0H6.343a4.7,4.7,0,0,1,.046.642,4.7,4.7,0,0,1-.046.642H6.6c1.916,0,1.916.257,1.916,1.916V4.9c0,1.659,0,1.916-1.916,1.916H3.19C.449,6.82.055,8.122,0,9.387c.064,0,.138-.009.2-.009h.853c.073,0,.147.009.229.009.046-.926.312-1.292,1.907-1.292H6.6c2.979,0,3.2-1.21,3.2-3.2V3.2C9.8,1.21,9.579,0,6.6,0Z"
        transform="translate(8.662 4.391)" fill="#d0d1d4" />
      <path id="Vector-4" data-name="Vector" d="M0,0H22V22H0Z" fill="none" opacity="0" />
    </g>
  </g>
</svg>