<svg xmlns="http://www.w3.org/2000/svg" width="56" height="56" viewBox="0 0 56 56">
  <g id="Group_37333" data-name="Group 37333" transform="translate(-1617 -834)">
    <circle id="Ellipse_3" data-name="Ellipse 3" cx="28" cy="28" r="28" transform="translate(1617 834)" fill="#f4f7fe"/>
    <path id="Path_27559" data-name="Path 27559" d="M38.073,44.313h.274a1.921,1.921,0,0,1,1.916,1.916v9.579a1.921,1.921,0,0,1-1.916,1.916h-.274a1.921,1.921,0,0,1-1.916-1.916V46.229A1.921,1.921,0,0,1,38.073,44.313Zm7.663-5.747a1.921,1.921,0,0,1,1.916,1.916V55.808a1.916,1.916,0,0,1-3.832,0V40.482A1.921,1.921,0,0,1,45.736,38.566ZM53.4,49.513a1.921,1.921,0,0,1,1.916,1.916v4.379a1.916,1.916,0,0,1-3.831,0V51.429A1.921,1.921,0,0,1,53.4,49.513Z" transform="translate(1599.211 814)" fill="#5671ff"/>
  </g>
</svg>
