<svg xmlns="http://www.w3.org/2000/svg" width="24" height="24" viewBox="0 0 24 24">
  <g id="vuesax_linear_scan" data-name="vuesax/linear/scan" transform="translate(-364 -252)">
    <g id="scan">
      <path id="Vector" d="M0,7V4.5A4.494,4.494,0,0,1,4.5,0H7" transform="translate(366 254)" fill="none" stroke="#8a8e97" stroke-linecap="round" stroke-linejoin="round" stroke-width="1.5"/>
      <path id="Vector-2" data-name="Vector" d="M0,0H2.5A4.494,4.494,0,0,1,7,4.5V7" transform="translate(379 254)" fill="none" stroke="#8a8e97" stroke-linecap="round" stroke-linejoin="round" stroke-width="1.5"/>
      <path id="Vector-3" data-name="Vector" d="M6,0V1.5A4.494,4.494,0,0,1,1.5,6H0" transform="translate(380 268)" fill="none" stroke="#8a8e97" stroke-linecap="round" stroke-linejoin="round" stroke-width="1.5"/>
      <path id="Vector-4" data-name="Vector" d="M7,7H4.5A4.494,4.494,0,0,1,0,2.5V0" transform="translate(366 267)" fill="none" stroke="#8a8e97" stroke-linecap="round" stroke-linejoin="round" stroke-width="1.5"/>
      <path id="Vector-5" data-name="Vector" d="M10,3V8a2.652,2.652,0,0,1-3,3H3A2.652,2.652,0,0,1,0,8V3A2.652,2.652,0,0,1,3,0H7A2.652,2.652,0,0,1,10,3Z" transform="translate(371 258.5)" fill="none" stroke="#8a8e97" stroke-linecap="round" stroke-linejoin="round" stroke-width="1.5"/>
      <path id="Vector-6" data-name="Vector" d="M14,0H0" transform="translate(369 264)" fill="none" stroke="#8a8e97" stroke-linecap="round" stroke-linejoin="round" stroke-width="1.5"/>
      <path id="Vector-7" data-name="Vector" d="M0,0H24V24H0Z" transform="translate(388 276) rotate(180)" fill="none" opacity="0"/>
    </g>
  </g>
</svg>
