<svg xmlns="http://www.w3.org/2000/svg" width="20.197" height="21.868" viewBox="0 0 20.197 21.868">
  <g id="customer-care-svgrepo-com" transform="translate(-8.31 -6.26)">
    <path id="Path_27685" data-name="Path 27685" d="M12.91,17.112V14.79a7.78,7.78,0,0,1,15.559,0v2.323" transform="translate(-2.281 0)" fill="none" stroke="#8a8e97" stroke-linecap="round" stroke-width="1.5"/>
    <path id="Path_27686" data-name="Path 27686" d="M10.283,31.8H12.2v5.453H10.283A1.223,1.223,0,0,1,9.06,36.03V33.023A1.223,1.223,0,0,1,10.283,31.8Z" transform="translate(0 -14.688)" fill="none" stroke="#8a8e97" stroke-linecap="round" stroke-width="1.5"/>
    <path id="Path_27687" data-name="Path 27687" d="M1.223,0H3.138V5.453H1.223A1.223,1.223,0,0,1,0,4.23V1.223A1.223,1.223,0,0,1,1.223,0Z" transform="translate(27.757 22.565) rotate(180)" fill="none" stroke="#8a8e97" stroke-linecap="round" stroke-width="1.5"/>
    <path id="Path_27688" data-name="Path 27688" d="M42.73,45.56V47.6a1.63,1.63,0,0,1-1.63,1.63H36.56" transform="translate(-16.293 -22.84)" fill="none" stroke="#8a8e97" stroke-linecap="round" stroke-width="1.5"/>
    <rect id="Rectangle_17447" data-name="Rectangle 17447" width="3.301" height="2.066" rx="1.033" transform="translate(16.962 25.312)" fill="none" stroke="#8a8e97" stroke-linecap="round" stroke-width="1.5"/>
  </g>
</svg>
