<svg xmlns="http://www.w3.org/2000/svg" xmlns:xlink="http://www.w3.org/1999/xlink" width="161.897" height="26.393" viewBox="0 0 161.897 26.393">
  <defs>
    <clipPath id="clip-path">
      <rect id="Rectangle_35" data-name="Rectangle 35" width="146.763" height="26.393" fill="none"/>
    </clipPath>
  </defs>
  <g id="Group_37467" data-name="Group 37467" transform="translate(-40 -37)">
    <g id="Group_37287" data-name="Group 37287" transform="translate(-61 -52.762)">
      <g id="Group_2675" data-name="Group 2675" transform="translate(101 89.762)">
        <g id="Group_2670" data-name="Group 2670" transform="translate(0 0)">
          <g id="Group_2669" data-name="Group 2669" clip-path="url(#clip-path)">
            <path id="Path_27556" data-name="Path 27556" d="M-43.374,362.865a11.932,11.932,0,0,1,.581-3.641A9.777,9.777,0,0,1-41,355.936a8.752,8.752,0,0,1,7.175-3.078,8.753,8.753,0,0,1,7.176,3.078,10.61,10.61,0,0,1,2.374,6.876,10.477,10.477,0,0,1-2.374,6.877,8.687,8.687,0,0,1-7.176,3.13A8.685,8.685,0,0,1-41,369.689a10.27,10.27,0,0,1-2.374-6.824Zm3.28,0a10.872,10.872,0,0,0,.334,2.576,6.875,6.875,0,0,0,1.187,2.524,5.458,5.458,0,0,0,4.748,2.479,5.233,5.233,0,0,0,4.749-2.479,9.443,9.443,0,0,0,1.468-5.154,8.678,8.678,0,0,0-1.468-5.056,5.288,5.288,0,0,0-4.749-2.524,5.432,5.432,0,0,0-4.748,2.524,8.41,8.41,0,0,0-1.522,5.109Zm19.055,0a11.932,11.932,0,0,1,.581-3.641,9.785,9.785,0,0,1,1.794-3.289,8.755,8.755,0,0,1,7.176-3.078,8.752,8.752,0,0,1,7.175,3.078,10.609,10.609,0,0,1,2.374,6.876,10.476,10.476,0,0,1-2.374,6.877,8.685,8.685,0,0,1-7.175,3.13,8.688,8.688,0,0,1-7.176-3.13,10.27,10.27,0,0,1-2.374-6.824Zm3.281,0a10.856,10.856,0,0,0,.334,2.576,6.878,6.878,0,0,0,1.187,2.524,5.46,5.46,0,0,0,4.749,2.479,5.233,5.233,0,0,0,4.748-2.479,9.443,9.443,0,0,0,1.468-5.154,8.678,8.678,0,0,0-1.468-5.056,5.287,5.287,0,0,0-4.748-2.524,5.434,5.434,0,0,0-4.749,2.524,8.409,8.409,0,0,0-1.521,5.109Zm39.367,7.878-5.3-14.552-5.363,14.552A2.134,2.134,0,0,1,8.8,372.415,1.973,1.973,0,0,1,6.748,370.8L.935,355.285a1.952,1.952,0,0,1-.1-.58,1.9,1.9,0,0,1,.1-.581.613.613,0,0,1,.361-.4,3.016,3.016,0,0,1,.958-.51,1.329,1.329,0,0,1,1.46,1.117l5.2,14.755,5.364-14.254A2.2,2.2,0,0,1,16.4,353.21a2.574,2.574,0,0,1,1.31.351,2.23,2.23,0,0,1,.915,1.266l5.056,14.1,5.153-14.6a1.342,1.342,0,0,1,1.311-1.117,1.412,1.412,0,0,1,1.037.431,1.263,1.263,0,0,1,.431.888,4.608,4.608,0,0,1-.053.756L25.6,370.8a1.945,1.945,0,0,1-1.917,1.618,2,2,0,0,1-2.075-1.671ZM35.756,371v-16.32a1.3,1.3,0,0,1,.5-1.064,1.632,1.632,0,0,1,1.011-.4,1.287,1.287,0,0,1,1.363.809,5.728,5.728,0,0,1,.157,2.427,5.464,5.464,0,0,1,2.63-2.63,7.32,7.32,0,0,1,3.508-.959,8.885,8.885,0,0,1,2.955.431,6.656,6.656,0,0,1,2.224,1.337,7.44,7.44,0,0,1,2.022,5.663V371a1.192,1.192,0,0,1-.527,1.065,1.974,1.974,0,0,1-1.09.351,1.619,1.619,0,0,1-1.064-.378A1.285,1.285,0,0,1,49,371V360.086a4.809,4.809,0,0,0-1.319-3.64,4.116,4.116,0,0,0-3.033-1.214,6.315,6.315,0,0,0-4.141,1.416A5.883,5.883,0,0,0,38.79,361.3V371a1.207,1.207,0,0,1-.51,1.065,1.891,1.891,0,0,1-1.108.351,1.425,1.425,0,0,1-1.011-.378,1.354,1.354,0,0,1-.4-1.038Zm39.367-8.74q0,1.063-1.213,1.161H60.061q.2,5.153,4.045,6.674a7.681,7.681,0,0,0,2.427.351,9.991,9.991,0,0,0,5.759-2.075,1.157,1.157,0,0,1,1.513.1.563.563,0,0,1,.2.607,1.281,1.281,0,0,1-.351,1.011,9.736,9.736,0,0,1-7.325,2.726,8.735,8.735,0,0,1-6.674-2.682,9.8,9.8,0,0,1-2.831-7.325,10.272,10.272,0,0,1,2.33-6.919,8.276,8.276,0,0,1,6.867-3.034q4.45,0,6.771,2.673a9.965,9.965,0,0,1,2.33,6.727Zm-14.957-.915H72.143a7.028,7.028,0,0,0-1.776-4.493,5.659,5.659,0,0,0-4.344-1.618,5.482,5.482,0,0,0-4.141,1.82,7.055,7.055,0,0,0-1.714,4.291Zm36.782.915q0,1.063-1.214,1.161H81.895q.2,5.153,4.036,6.674a7.739,7.739,0,0,0,2.427.351,9.968,9.968,0,0,0,5.76-2.075,1.168,1.168,0,0,1,1.521.1.584.584,0,0,1,.2.607,1.281,1.281,0,0,1-.352,1.011,9.762,9.762,0,0,1-7.333,2.726,8.723,8.723,0,0,1-6.665-2.682,9.8,9.8,0,0,1-2.832-7.325,10.294,10.294,0,0,1,2.322-6.919,8.3,8.3,0,0,1,6.876-3.034q4.441,0,6.77,2.673a9.933,9.933,0,0,1,2.322,6.727Zm-14.957-.915H93.968A6.994,6.994,0,0,0,92.2,356.85a5.657,5.657,0,0,0-4.343-1.618,5.509,5.509,0,0,0-4.15,1.82,7.05,7.05,0,0,0-1.714,4.291Zm0,0" transform="translate(47.237 -350.286)" fill="#1dc7da" stroke="#1dc7da" stroke-width="1"/>
          </g>
        </g>
      </g>
    </g>
    <g id="Group_37466" data-name="Group 37466">
      <path id="Path_27611" data-name="Path 27611" d="M2308.891,42.656h3.781v13.8h-3.8Z" transform="translate(-2120)" fill="#6d8bc3"/>
      <path id="Path_27612" data-name="Path 27612" d="M2308.891,42.656h3.781v13.8h-3.8Z" transform="translate(-2115.375)" fill="#92a8d2"/>
      <path id="Path_27613" data-name="Path 27613" d="M2308.891,42.656h3.781v13.8h-3.8Z" transform="translate(-2110.775)" fill="#b5c4e0"/>
    </g>
  </g>
</svg>
