<svg xmlns="http://www.w3.org/2000/svg" width="36" height="36" viewBox="0 0 36 36">
    <g id="Group_37355" data-name="Group 37355" transform="translate(-1620 -1168)">
      <circle id="Ellipse_4" data-name="Ellipse 4" cx="18" cy="18" r="18" transform="translate(1620 1168)" fill="#f4f7fe"/>
      <g id="vuesax_bold_receipt-2" data-name="vuesax/bold/receipt-2" transform="translate(1138.244 798.244)">
        <g id="receipt-2" transform="translate(492 380)">
          <path id="Vector" d="M0,0H15.513V15.513H0Z" fill="none" opacity="0"/>
          <path id="Vector-2" data-name="Vector" d="M10.665,1.079c0-.006,0-.013-.013-.019A.68.68,0,0,0,10.1.782a1.811,1.811,0,0,0-1.2.7,1.143,1.143,0,0,1-1.81-.1L6.438.524A1.183,1.183,0,0,0,5.494,0,1.183,1.183,0,0,0,4.55.524L3.891,1.4a1.137,1.137,0,0,1-1.8.1l-.006-.006C1.357.7.7.588.336,1.06c-.013.006-.013.013-.013.019A5.3,5.3,0,0,0,0,3.258V9.67a5.3,5.3,0,0,0,.323,2.178.049.049,0,0,0,.013.026c.375.465,1.021.349,1.752-.433l.006-.006a1.137,1.137,0,0,1,1.8.1l.659.873a1.183,1.183,0,0,0,.944.524,1.183,1.183,0,0,0,.944-.524l.653-.866a1.143,1.143,0,0,1,1.81-.1,1.811,1.811,0,0,0,1.2.7.673.673,0,0,0,.549-.271.049.049,0,0,0,.013-.026,5.3,5.3,0,0,0,.323-2.178V3.258A5.3,5.3,0,0,0,10.665,1.079Zm-3.555,7H3.232a.485.485,0,0,1,0-.97H7.11a.485.485,0,0,1,0,.97ZM8.4,5.817H3.232a.485.485,0,1,1,0-.97H8.4a.485.485,0,0,1,0,.97Z" transform="translate(1.939 1.293)" fill="#8a8e97"/>
        </g>
      </g>
    </g>
  </svg>
  