<svg xmlns="http://www.w3.org/2000/svg" width="37" height="38" viewBox="0 0 37 38">
    <g id="Group_37355" data-name="Group 37355" transform="translate(-1619 -1166)">
        <circle id="Ellipse_4" data-name="Ellipse 4" cx="18" cy="18" r="18"
            transform="translate(1620 1168)" fill="#f4f7fe" />
        <circle id="Ellipse_189" data-name="Ellipse 189" cx="18" cy="18" r="18"
            transform="translate(1619 1166)" fill="#f4f7fe" />
    </g>
    <g id="vuesax_bulk_brush" data-name="vuesax/bulk/brush" transform="translate(-162 -177)">
        <g id="brush" transform="translate(172 188)">
            <path id="Vector"
                d="M9.042.7A2.727,2.727,0,0,0,7.034,0H2.706A2.442,2.442,0,0,0,0,2.706,2.727,2.727,0,0,0,.7,4.715a2.727,2.727,0,0,0,2.009.7H7.034A2.442,2.442,0,0,0,9.74,2.706,2.727,2.727,0,0,0,9.042.7Z"
                transform="translate(2.993 1.551)" fill="#8a8e97" />
            <path id="Vector-2" data-name="Vector"
                d="M2.342,0H1.621A1.453,1.453,0,0,0,0,1.621V3.784A1.453,1.453,0,0,0,1.621,5.405h.721A1.453,1.453,0,0,0,3.963,3.784V1.621A1.451,1.451,0,0,0,2.342,0Z"
                transform="translate(5.878 11.648)" fill="#d0d1d4" />
            <path id="Vector-3" data-name="Vector"
                d="M5.584,0H5.366a3.972,3.972,0,0,1,.039.543,3.972,3.972,0,0,1-.039.543h.217C7.2,1.086,7.2,1.3,7.2,2.706V4.149c0,1.4,0,1.621-1.621,1.621H2.7C.38,5.77.047,6.871,0,7.941c.054,0,.116-.008.171-.008H.892c.062,0,.124.008.194.008.039-.783.264-1.093,1.613-1.093H5.584c2.52,0,2.706-1.024,2.706-2.706V2.706C8.29,1.024,8.1,0,5.584,0Z"
                transform="translate(7.328 3.715)" fill="#d0d1d4" />
            <path id="Vector-4" data-name="Vector" d="M0,0H18.612V18.612H0Z" fill="none" opacity="0" />
        </g>
    </g>
</svg>
  