<svg xmlns="http://www.w3.org/2000/svg" xmlns:xlink="http://www.w3.org/1999/xlink" width="260"
  height="77" viewBox="0 0 260 77">
  <defs>
    <clipPath id="clip-path">
      <rect id="Rectangle_70" data-name="Rectangle 70" width="260" height="77" rx="15"
        transform="translate(-0.308 -0.231)" fill="#fff" />
    </clipPath>
    <linearGradient id="linear-gradient" x1="0.5" x2="0.5" y2="1" gradientUnits="objectBoundingBox">
      <stop offset="0" stop-color="#5671ff" />
      <stop offset="1" stop-color="#2b4dff" />
    </linearGradient>
    <clipPath id="clip-path-2">
      <rect id="Rectangle_69" data-name="Rectangle 69" width="20" height="22"
        transform="translate(0.385 -0.462)" fill="#fff" />
    </clipPath>
  </defs>
  <g id="Group_37345" data-name="Group 37345" transform="translate(0.308 0.231)"
    clip-path="url(#clip-path)">
    <rect id="Rectangle_68" data-name="Rectangle 68" width="280" height="112" rx="40"
      transform="translate(-10.308 -11.231)" fill="url(#linear-gradient)" />
    <g id="Group_37343" data-name="Group 37343" transform="translate(103.121 -52.088)">
      <path id="Path_27576" data-name="Path 27576"
        d="M144.789,145.714,249.094-36h57.167l4.814,181.714Z" transform="translate(-144.789 36)"
        fill="#fff" opacity="0.1" />
    </g>
    <g id="Group_37344" data-name="Group 37344" transform="translate(224.308 9.231)"
      clip-path="url(#clip-path-2)">
      <path id="Path_27577" data-name="Path 27577"
        d="M291.5,46a1.714,1.714,0,1,0,1.714,1.714A1.719,1.719,0,0,0,291.5,46Zm10.286,0a1.714,1.714,0,1,0,1.714,1.714A1.719,1.719,0,0,0,301.789,46Zm-5.143,0a1.714,1.714,0,1,0,1.714,1.714A1.719,1.719,0,0,0,296.646,46Z"
        transform="translate(-286.69 -37.033)" fill="#fff" />
    </g>
    <path id="Path_27580" data-name="Path 27580"
      d="M246.789,79.171c.6,3.086,3,8.829,8.571,8.4S261.6,73,271.352,73s9.753,16.31,26.008,2.2"
      transform="translate(-56.24 -31.659)" fill="none" stroke="#fff" stroke-linecap="round"
      stroke-linejoin="round" stroke-width="2" />
    <text id="Current_Balance" data-name="Current Balance" transform="translate(17.692 22.769)"
      fill="#fff" font-size="12" font-family="OpenSans, Open Sans">
      <tspan x="0" y="0">Current Balance</tspan>
    </text>
    <text id="_200_000" data-name="200,000" transform="translate(17.692 56.769)" fill="#fff"
      font-size="28" font-family="OpenSans-Bold, Open Sans" font-weight="700">
      <tspan x="0" y="0">200,000</tspan>
    </text>
  </g>
</svg>